<?xml version="1.0" encoding="UTF-8"?>
<svg width="120px" height="120px" viewBox="0 0 100 100" version="1.1" xmlns="http://www.w3.org/2000/svg" xmlns:xlink="http://www.w3.org/1999/xlink">
    <!-- Generator: Sketch 63.1 (92452) - https://sketch.com -->
    <title>loading</title>
    <desc>Created with Sketch.</desc>
    <g id="页面-1" stroke="none" stroke-width="1" fill="none" fill-rule="evenodd">
        <g id="loading">
            <g>
                <g id="大" fill="#A0D1F8">
                    <path d="M50,0 C77.6142375,0 100,22.3857625 100,50 C100,60.3739505 96.8406763,70.0100015 91.4316949,77.9984868 L84.5167615,71.0843584 C88.2749461,64.94504 90.4411765,57.7254951 90.4411765,50 C90.4411765,27.664955 72.335045,9.55882353 50,9.55882353 C27.664955,9.55882353 9.55882353,27.664955 9.55882353,50 C9.55882353,72.335045 27.664955,90.4411765 50,90.4411765 C61.1458429,90.4411765 71.2385582,85.9322014 78.5535767,78.6388205 L85.3126363,85.3979906 C85.3096553,85.4009645 85.3066738,85.403938 85.303692,85.4069112 L93.0850872,93.1887234 L86.3259783,99.9478323 L77.885389,91.5080487 C69.9191245,96.8703961 60.3250413,100 50,100 C22.3857625,100 0,77.6142375 0,50 C0,22.3857625 22.3857625,0 50,0 Z"></path>
                </g>
            </g>
        </g>
    </g>
</svg>