<?xml version="1.0" encoding="UTF-8"?>
<svg width="120px" height="120px" viewBox="0 0 100 100" version="1.1" xmlns="http://www.w3.org/2000/svg" xmlns:xlink="http://www.w3.org/1999/xlink">
    <!-- Generator: Sketch 63.1 (92452) - https://sketch.com -->
    <title>loading</title>
    <desc>Created with Sketch.</desc>
    <g id="页面-1" stroke="none" stroke-width="1" fill="none" fill-rule="evenodd">
        <g id="loading">
            <g>

                <g id="中" transform="translate(19.500000, 19.500000)">
                    <rect id="bg" x="0" y="0" width="61" height="61"></rect>
                    <g fill="#A0D1F8" fill-rule="nonzero" id="椭圆形">
                        <path d="M30.5,0 C38.9375178,0 46.5748173,3.42614195 52.096571,8.96309835 L45.0254135,16.0340962 C41.3133188,12.3068262 36.1760535,10 30.5,10 C19.1781626,10 10,19.1781626 10,30.5 C10,41.8218374 19.1781626,51 30.5,51 C36.1760535,51 41.3133188,48.6931738 45.0254135,44.9659038 L52.096571,52.0369017 C46.5748173,57.573858 38.9375178,61 30.5,61 C13.6553151,61 0,47.3446849 0,30.5 C0,13.6553151 13.6553151,0 30.5,0 Z"></path>
                    </g>
                </g>

            </g>
        </g>
    </g>
</svg>